<svg width="808" height="808" viewBox="0 0 808 808" fill="none" xmlns="http://www.w3.org/2000/svg">
<g clip-path="url(#clip0_456_28)">
<path d="M723.79 84.42C647.55 8.48 537.94 0 404 0C269.89 0 160.12 8.58 83.92 84.72C7.72 160.86 0 270.43 0 404.39C0 538.35 7.74 648 84 724.14C160.26 800.28 269.9 808 404 808C538.1 808 647.85 800.29 724 724.14C800.15 647.99 808 538.36 808 404.39C808 270.25 800.16 160.54 723.79 84.42Z" fill="#90AA2F"/>
<path d="M160.725 334.36H221.845V362.2H120.245V339.32L178.645 263.64H122.165V235.8H219.125V258.68L160.725 334.36ZM262.52 364.44C256.973 364.44 251.907 363.32 247.32 361.08C242.733 358.947 239.053 355.8 236.28 351.64C233.507 347.373 232.12 342.36 232.12 336.6C232.12 329.88 233.827 323.853 237.24 318.52C240.76 313.08 245.827 308.867 252.44 305.88C259.053 302.787 266.893 301.24 275.96 301.24H287.48V299.48C287.48 295.64 286.093 292.6 283.32 290.36C280.547 288.12 276.813 287 272.12 287C268.6 287 265.4 287.853 262.52 289.56C259.747 291.16 257.293 293.613 255.16 296.92L235.8 283.64C240.28 276.813 245.773 271.693 252.28 268.28C258.787 264.867 266.36 263.16 275 263.16C283 263.16 290.147 264.707 296.44 267.8C302.733 270.893 307.587 275.267 311 280.92C314.52 286.467 316.28 292.867 316.28 300.12V362.2H287.48V351.48H286.52C284.6 355.747 281.56 358.947 277.4 361.08C273.24 363.32 268.28 364.44 262.52 364.44ZM271.8 341.08C274.893 341.08 277.613 340.653 279.96 339.8C282.307 338.84 284.12 337.507 285.4 335.8C286.787 334.093 287.48 332.12 287.48 329.88V324.6H282.04C275.107 324.6 269.933 325.453 266.52 327.16C263.213 328.867 261.56 331.373 261.56 334.68C261.56 336.813 262.36 338.413 263.96 339.48C265.667 340.547 268.28 341.08 271.8 341.08ZM364.02 362.2H335.22V265.4H364.02V362.2ZM366.42 239.16C366.42 244.28 364.873 248.387 361.78 251.48C358.793 254.467 354.687 255.96 349.46 255.96C344.34 255.96 340.287 254.467 337.3 251.48C334.313 248.387 332.82 244.28 332.82 239.16C332.82 234.04 334.313 229.987 337.3 227C340.287 223.907 344.34 222.36 349.46 222.36C354.687 222.36 358.793 223.907 361.78 227C364.873 229.987 366.42 234.04 366.42 239.16ZM376.093 235.8H412.093L437.533 287.96H438.493L463.933 235.8H499.933L452.893 314.52V362.2H423.133V314.52L376.093 235.8ZM581.4 265.4V362.2H552.6V350.04H551.64C548.973 354.627 545.453 358.147 541.08 360.6C536.813 363.16 531.693 364.44 525.72 364.44C516.227 364.44 508.76 361.4 503.32 355.32C497.88 349.133 495.16 340.493 495.16 329.4V265.4H523.96V322.68C523.96 327.267 525.133 330.893 527.48 333.56C529.827 336.227 533.027 337.56 537.08 337.56C540.173 337.56 542.893 336.92 545.24 335.64C547.587 334.253 549.4 332.333 550.68 329.88C551.96 327.427 552.6 324.493 552.6 321.08V265.4H581.4ZM599.398 362.2V265.4H628.198V277.88H628.998C631.771 273.187 635.398 269.56 639.878 267C644.358 264.44 649.584 263.16 655.558 263.16C665.158 263.16 672.571 266.253 677.798 272.44C683.024 278.627 685.638 287.427 685.638 298.84V362.2H656.838V305.56C656.838 300.867 655.664 297.187 653.318 294.52C651.078 291.853 647.931 290.52 643.878 290.52C640.678 290.52 637.904 291.213 635.558 292.6C633.211 293.88 631.398 295.8 630.118 298.36C628.838 300.92 628.198 303.907 628.198 307.32V362.2H599.398ZM226.171 574.2L273.851 447.8H304.251L351.931 574.2H320.411L289.531 486.52H288.571L257.691 574.2H226.171ZM318.171 520.28L325.531 548.12H254.331L261.371 520.28H318.171ZM375.892 535.96V509.08H410.292C417.225 509.08 422.505 507.64 426.132 504.76C429.865 501.773 431.732 497.507 431.732 491.96C431.732 486.413 429.865 482.147 426.132 479.16C422.399 476.173 417.119 474.68 410.292 474.68H393.172V574.2H363.412V447.8H414.772C429.599 447.8 441.172 451.693 449.492 459.48C457.919 467.267 462.132 478.093 462.132 491.96C462.132 505.72 458.079 516.493 449.972 524.28C441.865 532.067 430.665 535.96 416.372 535.96H375.892ZM491.361 535.96V509.08H525.761C532.694 509.08 537.974 507.64 541.601 504.76C545.334 501.773 547.201 497.507 547.201 491.96C547.201 486.413 545.334 482.147 541.601 479.16C537.867 476.173 532.587 474.68 525.761 474.68H508.641V574.2H478.881V447.8H530.241C545.067 447.8 556.641 451.693 564.961 459.48C573.387 467.267 577.601 478.093 577.601 491.96C577.601 505.72 573.547 516.493 565.441 524.28C557.334 532.067 546.134 535.96 531.841 535.96H491.361Z" fill="white"/>
</g>
<defs>
<clipPath id="clip0_456_28">
<rect width="808" height="808" fill="white"/>
</clipPath>
</defs>
</svg>
